PathFileType	4	(X/Y/Z)	Patient4_TMGait_0pt6_01_right_35.trc.trc
DataRate	CameraRate	NumFrames	NumMarkers	Units	OrigDataRate	OrigDataStartFrame	OrigNumFrames
80.459770114943	80.459770114943	6	33	mm	80.459770114943	124	       141
Frame#	Time	Sacral			L.Shoulder			Chest			R.Shoulder			Neck			R.ASIS			L.ASIS			R.Thigh.Superior			R.Thigh.Lateral			R.Thigh.Inferior			R.Patella			L.Thigh.Superior			L.Thigh.Lateral			L.Thigh.Inferior			L.Patella			L.Shank.Superior			L.Shank.Lateral			L.Shank.Inferior			R.Shank.Superior			R.Shank.Lateral			R.Shank.Inferior			R.Heel			R.Midfoot.Superior			R.Midfoot.Lateral			R.Toe			L.Heel			L.Midfoot.Lateral			L.Midfoot.Superior			L.Toe			L.Elbow			L.Wrist			R.Elbow			R.Wrist			
		X1	Y1	Z1	X2	Y2	Z2	X3	Y3	Z3	X4	Y4	Z4	X5	Y5	Z5	X6	Y6	Z6	X7	Y7	Z7	X8	Y8	Z8	X9	Y9	Z9	X10	Y10	Z10	X11	Y11	Z11	X12	Y12	Z12	X13	Y13	Z13	X14	Y14	Z14	X15	Y15	Z15	X16	Y16	Z16	X17	Y17	Z17	X18	Y18	Z18	X19	Y19	Z19	X20	Y20	Z20	X21	Y21	Z21	X22	Y22	Z22	X23	Y23	Z23	X24	Y24	Z24	X25	Y25	Z25	X26	Y26	Z26	X27	Y27	Z27	X28	Y28	Z28	X29	Y29	Z29	X30	Y30	Z30	X31	Y31	Z31	X32	Y32	Z32	X33	Y33	Z33	

124	43.518714285714	784.216442841495	999.456701600448	436.251114953433	977.327713250011	1430.312375837280	271.793518598797	1065.298269668292	1358.039553751942	438.513539563835	966.257494869639	1426.585518874076	605.149496168890	943.265346740103	1486.051369080323	425.473624771093	1003.353084581055	933.760148458719	568.499074594516	1006.917023991995	950.046277872039	293.089244535649	1073.553292201176	755.166239762236	541.244175438852	1014.495504783921	633.934205043176	604.613099568405	1104.221504030890	595.354897861649	528.276801460800	1126.433496824982	511.238192080454	538.244831484756	1005.142711696359	719.822741314892	323.290022367858	890.777480826261	624.997030866259	260.003223938250	949.525544938402	530.980340140954	326.466997185492	932.567940749665	459.709684920796	335.595095966715	888.828890631404	396.413493240345	327.866866375409	774.508409349291	306.536497878552	277.221294011713	794.117858601128	186.762505119461	347.846516782420	1111.915467916181	420.459953387288	546.760030033988	1056.577522461321	306.710360335324	606.822465404553	1122.337792571666	220.902871957061	551.725350704658	1021.621279140337	42.911335170610	520.085160367334	1187.151544075371	106.084808538482	558.476507210137	1105.245959845368	38.095952310111	594.230811109366	1310.184008809152	62.622172109659	584.972816747627	638.760988658090	49.027937108120	390.738018839759	710.219154191920	39.689634201651	309.196437318211	798.035822792449	96.508199082612	332.677950263203	921.933684998208	38.411557059479	299.288244592504	1051.171045460776	1099.992527845049	125.265869183047	1302.747054641616	1070.327413857248	162.687758858659	814.118860779421	1113.460583115086	698.653813688171	776.637486948548	855.059153342293	708.377232261118	
125	43.531142857143	786.179906366937	998.374579830928	439.450601201698	976.454608656094	1429.444908984799	274.056747795404	1065.568200545499	1358.078850967699	440.604116492335	966.739945358045	1426.146725960961	607.595175353932	942.902219621999	1485.462694340694	427.716871440254	1006.154050146708	932.917260829737	570.790806726885	1008.941426504333	950.065824248786	296.091092883374	1076.026785468618	753.296202600351	543.043646236362	1015.062243594735	632.502457871630	605.071516889145	1104.764156312345	593.758815773891	528.958240047120	1125.171992605142	508.506082012821	538.153214112266	1007.346103347778	719.154607615375	324.493344839364	892.862307294318	623.995559796901	262.021685953838	952.883683215352	529.701690548624	327.456796673807	936.168812394024	457.267963501927	335.823633243414	889.928945684173	394.830476039048	328.511076965956	773.002598274982	308.172851337857	278.101444173195	790.095238356996	187.438765287799	347.646934048585	1109.446645394284	417.478292435016	546.453788507536	1052.044731123984	304.434825879805	606.259567579716	1115.731206801321	217.570448814115	550.450179949034	1010.830106703334	42.114538734709	519.126724341087	1177.830134153930	102.468058921045	556.387515745309	1094.483856367658	36.871631227062	593.301630250417	1300.307294439744	56.805205390089	583.016095254303	631.885993370695	52.819196442645	390.381857307096	703.133112529752	41.575978661733	309.002232606590	791.965072724641	97.066587977967	332.064571604973	914.577123276052	38.194567335725	299.185750833783	1049.256519733661	1097.755875588487	129.004155753022	1300.620855455691	1065.066046386650	166.844350060535	818.212416072717	1110.770212574873	700.556394398458	782.868507747110	851.943913791645	709.139168310689	
126	43.543571428571	787.976634321855	997.606615439659	442.659085853511	975.578162640869	1428.882256342707	276.414103491759	1065.884292017194	1358.320274924608	442.729817857588	967.387268699172	1425.906508644160	610.143865799137	942.629970640884	1485.157843593649	430.073627949622	1008.881621229229	932.440865057946	573.057362764494	1010.576053919651	950.306985018080	299.025680359256	1078.287083151686	751.716363567127	544.723900694401	1015.786597292734	631.609212711383	605.815229979480	1105.103976144306	592.525210519668	529.577050072769	1123.910402475305	506.289464514331	538.213674970256	1010.093899466778	718.874038820730	325.799533409021	895.929646901211	622.974243447014	264.117090858712	957.610422316372	528.583721314433	328.513820109700	941.243111797562	454.835830719885	335.966418744821	892.296151648287	393.307901613144	329.111971409169	772.584471533237	310.318273180017	279.046043846659	786.869992947975	188.614826883651	347.406725760186	1107.103143211645	415.128857354214	546.383772303671	1048.050301119975	302.761299640289	606.179096129445	1109.667556121601	214.948845226318	549.523101665201	1000.978041640755	41.612518627514	518.585261909057	1169.162619535329	99.745093608515	554.696156467503	1084.692913937829	36.143647589923	592.753739670576	1291.235233131764	52.355772673110	581.489980011834	625.439566793166	57.964655172714	390.041116965605	696.269062533254	44.363106524774	308.816235676216	786.381014147141	97.904153884810	331.387954950958	907.124126596553	37.912501974829	299.119754675203	1046.738099939334	1095.570346679833	132.996856049289	1297.825644059222	1058.728437384915	170.826551687198	823.177848036459	1107.905848711392	702.689675470548	790.676676463329	848.561176999786	710.122297822962	
127	43.556000000000	789.566610222705	997.177051028913	445.851780532070	974.710447448935	1428.663169821833	278.834317143932	1066.228393640673	1358.769177388743	444.854933151560	968.195008838470	1425.903971475689	612.745007088804	942.430400270043	1485.155320324338	432.508443670691	1011.461508637168	932.367506783114	575.311507068081	1011.717602210571	950.725697634476	301.816599096142	1080.246371366463	750.508312540922	546.305173660760	1016.616199975727	631.249133759339	606.870639818311	1105.199498349513	591.655766619015	530.194229803357	1122.586213734928	504.602520977909	538.497334120963	1013.372559642540	719.020113679911	327.266829807924	900.086745906340	621.955986118084	266.247056437621	963.795719298519	527.686605637658	329.634066962968	947.862826161833	452.499792234776	336.026325722783	896.062813390185	391.902808853900	329.653277011336	773.427523137660	313.040534538860	280.032344702053	784.597798049199	190.397637098219	347.140389332248	1104.823744460967	413.406011347702	546.582600093376	1044.511160100836	301.675965282675	606.561692374357	1104.101923228617	213.038038901279	548.965200057540	992.099364293722	41.368450658163	518.395951449768	1161.155273550592	97.887262747269	553.453534314117	1075.883268121032	35.822574803531	592.536920451550	1282.961443187159	49.255314458210	580.443652444319	619.593887724112	64.710293493637	389.730237341087	689.745755964600	48.283852265812	308.645860357298	781.395435414950	99.112831156558	330.680447209447	899.562587342030	37.520900791081	299.102694348165	1043.628525202258	1093.513319668226	137.241452396375	1294.307412776047	1051.326758237478	174.604735511364	828.947926505401	1104.996716935721	705.046562914858	800.044882328561	845.061064973669	711.350489767421	
128	43.568428571429	790.930047060076	997.076173341580	449.030019934553	973.845925119162	1428.791712661905	281.281398208622	1066.573847952078	1359.411292800202	446.938421943655	969.147124831886	1426.154969849859	615.342639482969	942.271489344076	1485.444302304975	434.980815736098	1013.842483150988	932.696803962779	577.565300996711	1012.332586347697	951.280853876857	304.413579358741	1081.851576281410	749.701853078347	547.825240939836	1017.440029149147	631.348675165734	608.219972408712	1105.008178313139	591.093667336467	530.881040835478	1121.102423713238	503.386801660417	539.034098219058	1017.140757874882	719.612116985599	328.936120458051	905.387391747438	620.974492890327	268.361066159495	971.457435622853	527.075200897544	330.798898819059	956.032071235874	450.359713437705	336.009222706726	901.308541953714	390.678301465362	330.122682228143	775.667471988352	316.384409153034	281.034788193429	783.418620693026	192.877048713977	346.868318435306	1102.498866509638	412.232222446337	547.040444853616	1041.254784455502	301.098214120711	607.326078063144	1098.898659215520	211.758129522463	548.746907187154	984.075524200887	41.326271885988	518.476135136817	1153.706986038760	96.776967927145	552.651278765015	1067.920118690583	35.796391447845	592.579657744768	1275.360418441095	47.336741450191	579.858072276392	614.545373776054	73.239792500813	389.466414633887	683.714516863205	53.543521289245	308.500453488368	777.122056990359	100.790635176233	329.986129860333	891.913247914185	36.973854834221	299.142807314629	1039.953278160660	1091.645458392436	141.721957872482	1289.995683294477	1042.878823989341	178.160827336156	835.438536040970	1102.155550029692	707.615843509445	810.956961715944	841.593278950128	712.828563742295	
129	43.580857142857	792.065062030274	997.261601505536	452.219110489329	972.955770019913	1429.234640740717	283.716906230726	1066.887129932799	1360.215733379285	448.936005418665	970.217388074856	1426.648678070318	617.882098819754	942.112682285723	1485.986473241027	437.448793794506	1015.998146246565	933.391299597420	579.820871512223	1012.451875348098	951.936122185601	306.792155482016	1083.077406502937	749.261124407581	549.339855843277	1018.086229863543	631.779521225007	609.810892602642	1104.472508873961	590.739112984011	531.703768798365	1119.340644444131	502.536574887140	539.802419920218	1021.333814545160	720.652445860972	330.823531173849	911.818383828872	620.077147936648	270.407823946751	980.529135780937	526.819659332432	331.981114169829	965.680426090238	448.526738059960	335.931147701441	908.046640432553	389.703674393347	330.518623858393	779.387068501060	320.366424695532	282.029894227462	783.444678433108	196.113913368789	346.617116039612	1099.993892783347	411.485789383384	547.710599532521	1038.068331590366	300.904742047623	608.351764866444	1093.880051648303	210.979177071905	548.800087345619	976.699888245783	41.421579466092	518.737963324588	1146.660141170751	96.246641493759	552.233948891641	1060.588438557574	35.952864550019	592.802187593540	1268.244396582907	46.344536967154	579.663723657688	610.506072597333	83.638365854036	389.268909535353	678.358295619821	60.287505250591	308.391788800980	773.674805336279	103.033240983232	329.357144499765	884.246775849441	36.234576443172	299.242355810449	1035.750144084173	1089.999723914875	146.405848286417	1284.801985535462	1033.410317599086	181.488590336648	842.556155538731	1099.470474496183	710.386035866406	823.399215697773	838.302776651907	714.543332381515	
